<svg height="512pt" viewBox="0 -46 512.0001 512" width="512pt" xmlns="http://www.w3.org/2000/svg"><path d="m437.011719 210c-5.503907 0-10.800781-3.039062-13.429688-8.292969-3.703125-7.410156-.703125-16.417969 6.707031-20.125l60-30c7.410157-3.703125 16.421876-.699219 20.125 6.707031 3.703126 7.410157.699219 16.421876-6.707031 20.125l-60 30c-2.152343 1.078126-4.441406 1.585938-6.695312 1.585938zm0 0" fill="#ba0000"/><path d="m74.988281 210c-2.253906 0-4.542969-.507812-6.695312-1.585938l-59.996094-30c-7.410156-3.703124-10.414063-12.714843-6.710937-20.125 3.707031-7.410156 12.71875-10.410156 20.125-6.707031l60 30c7.410156 3.703125 10.410156 12.714844 6.707031 20.125-2.628907 5.253907-7.925781 8.292969-13.429688 8.292969zm0 0" fill="#ba0000"/><path d="m347.011719 90.003906c-5.503907 0-10.800781-3.039062-13.429688-8.296875l-25.851562-51.707031h-103.457031l-25.855469 51.707031c-3.703125 7.410157-12.714844 10.414063-20.125 6.707031-7.410157-3.703124-10.410157-12.714843-6.707031-20.121093l30-60c2.539062-5.082031 7.734374-8.292969 13.414062-8.292969h122c5.683594 0 10.875 3.210938 13.417969 8.292969l29.996093 60c3.707032 7.40625.703126 16.417969-6.707031 20.121093-2.152343 1.078126-4.441406 1.589844-6.695312 1.589844zm0 0" fill="#fdbf00"/><path d="m436.984375 210c-6.71875 0-12.835937-4.546875-14.539063-11.363281l-24.316406-97.273438c-1.675781-6.691406-7.65625-11.363281-14.554687-11.363281h-255.148438c-6.898437 0-12.878906 4.671875-14.554687 11.363281l-24.316406 97.273438c-2.007813 8.039062-10.160157 12.921875-18.191407 10.914062-8.035156-2.007812-12.921875-10.152343-10.910156-18.191406l24.316406-97.273437c5.019531-20.070313 22.96875-34.085938 43.65625-34.085938h255.148438c20.6875 0 38.640625 14.015625 43.65625 34.085938l24.316406 97.273437c2.011719 8.039063-2.875 16.183594-10.910156 18.191406-1.222657.304688-2.445313.449219-3.652344.449219zm0 0" fill="#e10000"/><path d="m135 419.996094h-89.996094c-8.285156 0-15-6.71875-15-15v-60c0-8.285156 6.714844-15 15-15 8.28125 0 15 6.714844 15 15v45h59.996094v-45c0-8.285156 6.71875-15 15-15 8.285156 0 15 6.714844 15 15v60c0 8.28125-6.714844 15-15 15zm0 0" fill="#68544f"/><path d="m466.996094 419.996094h-89.996094c-8.285156 0-15-6.71875-15-15v-60c0-8.285156 6.714844-15 15-15 8.28125 0 15 6.714844 15 15v45h59.996094v-45c0-8.285156 6.71875-15 15-15 8.285156 0 15 6.714844 15 15v60c0 8.28125-6.714844 15-15 15zm0 0" fill="#68544f"/><path d="m317 299.996094h-122c-8.28125 0-15-6.714844-15-15s6.71875-15 15-15h122c8.285156 0 15 6.714844 15 15s-6.714844 15-15 15zm0 0" fill="#ba0000"/><path d="m496.996094 269.996094h-89.996094c-24.8125 0-45-20.1875-45-45v-30c0-8.28125 6.714844-15 15-15 8.28125 0 15 6.71875 15 15v30c0 8.273437 6.726562 15 15 15h89.996094c8.285156 0 15 6.71875 15 15 0 8.285156-6.714844 15-15 15zm0 0" fill="#ff7816"/><path d="m105 269.996094h-89.996094c-8.285156 0-14.99999975-6.714844-14.99999975-15 0-8.28125 6.71484375-15 14.99999975-15h89.996094c8.273438 0 15-6.726563 15-15v-30c0-8.28125 6.71875-15 15-15 8.285156 0 15 6.71875 15 15v30c0 24.8125-20.183594 45-45 45zm0 0" fill="#ff7816"/><path d="m496.996094 359.996094h-481.992188c-8.285156 0-14.99999975-6.714844-14.99999975-15v-90c0-41.355469 33.64453175-75 74.99999975-75h361.992188c41.355468 0 75 33.644531 75 75v90c0 8.285156-6.714844 15-15 15zm-466.992188-30h451.992188v-75c0-24.8125-20.183594-45-45-45h-361.992188c-24.8125 0-45 20.1875-45 45zm0 0" fill="#ff3636"/></svg>